<mxfile host="app.diagrams.net" modified="2021-01-26T03:41:06.421Z" agent="5.0 (Windows NT 10.0; Win64; x64) AppleWebKit/537.36 (KHTML, like Gecko) Chrome/87.0.4280.141 Safari/537.36" etag="aSBwVMzvb-UPsMjCkxwt" version="13.9.3" type="github">
  <diagram id="Q0fw-nx1riTChCYdNoPK" name="第 1 页">
    <mxGraphModel dx="1550" dy="844" grid="1" gridSize="10" guides="1" tooltips="1" connect="1" arrows="1" fold="1" page="1" pageScale="1" pageWidth="827" pageHeight="1169" math="0" shadow="0">
      <root>
        <mxCell id="0" />
        <mxCell id="1" parent="0" />
        <mxCell id="TSBQSkWqNJHL_FMz42RL-1" value="电子&lt;br&gt;&lt;br&gt;物理" style="rounded=1;whiteSpace=wrap;html=1;" vertex="1" parent="1">
          <mxGeometry x="190" y="250" width="80" height="100" as="geometry" />
        </mxCell>
        <mxCell id="TSBQSkWqNJHL_FMz42RL-2" value="" style="shape=flexArrow;endArrow=classic;html=1;entryX=0;entryY=0.5;entryDx=0;entryDy=0;" edge="1" parent="1" target="TSBQSkWqNJHL_FMz42RL-1">
          <mxGeometry width="50" height="50" relative="1" as="geometry">
            <mxPoint x="120" y="300" as="sourcePoint" />
            <mxPoint x="130" y="250" as="targetPoint" />
          </mxGeometry>
        </mxCell>
      </root>
    </mxGraphModel>
  </diagram>
</mxfile>
